<svg xmlns="http://www.w3.org/2000/svg" width="15" height="11" viewBox="0 0 15 11">
    <path fill="#000" fill-rule="evenodd" d="M4.812 10.375l.035.036.018.017c.025.003.05.011.075.024l.036.02c.075.029.124.055.147.08l.154.015c.074.03.138.036.191.02l.077.008a.963.963 0 0 0 .278-.066l.042-.027c.081-.034.129-.056.143-.065a.187.187 0 0 0 .043-.043l.022-.03 8.339-8.87a.594.594 0 0 0 .171-.523.707.707 0 0 0-.318-.48.936.936 0 0 0-.623-.16.903.903 0 0 0-.566.226L5.35 8.76 1.945 5.376a1.045 1.045 0 0 0-.594-.254.872.872 0 0 0-.618.158.62.62 0 0 0-.285.496.63.63 0 0 0 .237.518l4.11 4.063.017.018z"/>
</svg>
